<?xml version="1.0" encoding="utf-8"?>
<!-- Generator: Adobe Illustrator 16.0.3, SVG Export Plug-In . SVG Version: 6.00 Build 0)  -->
<!DOCTYPE svg PUBLIC "-//W3C//DTD SVG 1.1//EN" "http://www.w3.org/Graphics/SVG/1.1/DTD/svg11.dtd">
<svg version="1.1" id="Layer_1" xmlns="http://www.w3.org/2000/svg" xmlns:xlink="http://www.w3.org/1999/xlink" x="0px" y="0px"
	 width="14.4px" height="14.4px" viewBox="4.8 4.8 14.4 14.4" enable-background="new 4.8 4.8 14.4 14.4" xml:space="preserve">
<path fill="none" d="M0,0h24v24H0V0z"/>
<path fill="#FFFFFF" d="M14.38,4.96H6.7c-0.704,0-1.28,0.576-1.28,1.28v8.96H6.7V6.24h7.68V4.96z M16.3,7.52H9.26
	c-0.704,0-1.28,0.576-1.28,1.28v8.959c0,0.704,0.576,1.28,1.28,1.28h7.04c0.704,0,1.28-0.576,1.28-1.28V8.8
	C17.58,8.096,17.004,7.52,16.3,7.52z M16.3,17.76H9.26V8.8h7.04V17.76z"/>
</svg>
