<?xml version="1.0" encoding="utf-8"?>
<!-- Generator: Adobe Illustrator 16.0.3, SVG Export Plug-In . SVG Version: 6.00 Build 0)  -->
<!DOCTYPE svg PUBLIC "-//W3C//DTD SVG 1.1//EN" "http://www.w3.org/Graphics/SVG/1.1/DTD/svg11.dtd">
<svg version="1.1" id="Layer_1" xmlns="http://www.w3.org/2000/svg" xmlns:xlink="http://www.w3.org/1999/xlink" x="0px" y="0px"
	 width="14.4px" height="14.4px" viewBox="4.8 4.8 14.4 14.4" enable-background="new 4.8 4.8 14.4 14.4" xml:space="preserve">
<path fill="#FFFFFF" d="M17.2,7.45H6.8c-0.715,0-1.293,0.584-1.293,1.3L5.5,15.25c0,0.715,0.585,1.3,1.3,1.3h10.4
	c0.715,0,1.3-0.585,1.3-1.3v-6.5C18.5,8.035,17.915,7.45,17.2,7.45z M11.35,9.4h1.3v1.3h-1.3V9.4z M11.35,11.35h1.3v1.3h-1.3V11.35z
	 M9.4,9.4h1.3v1.3H9.4V9.4z M9.4,11.35h1.3v1.3H9.4V11.35z M8.75,12.65h-1.3v-1.3h1.3V12.65z M8.75,10.7h-1.3V9.4h1.3V10.7z
	 M14.6,15.25H9.4v-1.3h5.2V15.25z M14.6,12.65h-1.3v-1.3h1.3V12.65z M14.6,10.7h-1.3V9.4h1.3V10.7z M16.55,12.65h-1.3v-1.3h1.3
	V12.65z M16.55,10.7h-1.3V9.4h1.3V10.7z"/>
<path fill="none" d="M0,0h24v24H0V0z M0,0h24v24H0V0z"/>
</svg>
