<?xml version="1.0" encoding="utf-8"?>
<!-- Generator: Adobe Illustrator 16.0.3, SVG Export Plug-In . SVG Version: 6.00 Build 0)  -->
<!DOCTYPE svg PUBLIC "-//W3C//DTD SVG 1.1//EN" "http://www.w3.org/Graphics/SVG/1.1/DTD/svg11.dtd">
<svg version="1.1" id="Layer_1" xmlns="http://www.w3.org/2000/svg" xmlns:xlink="http://www.w3.org/1999/xlink" x="0px" y="0px"
	 width="14.4px" height="14.4px" viewBox="4.58 4.8 14.4 14.4" enable-background="new 4.58 4.8 14.4 14.4" xml:space="preserve">
<path fill="#FFFFFF" d="M12,5.25c-3.728,0-6.75,3.022-6.75,6.75s3.022,6.75,6.75,6.75c0.623,0,1.125-0.502,1.125-1.125
	c0-0.293-0.113-0.555-0.293-0.758c-0.172-0.194-0.284-0.457-0.284-0.742c0-0.623,0.503-1.125,1.125-1.125H15
	c2.07,0,3.75-1.68,3.75-3.75C18.75,7.935,15.729,5.25,12,5.25z M7.875,12c-0.623,0-1.125-0.502-1.125-1.125S7.252,9.75,7.875,9.75
	S9,10.252,9,10.875S8.498,12,7.875,12z M10.125,9C9.502,9,9,8.498,9,7.875S9.502,6.75,10.125,6.75s1.125,0.502,1.125,1.125
	S10.748,9,10.125,9z M13.875,9c-0.623,0-1.125-0.502-1.125-1.125s0.502-1.125,1.125-1.125S15,7.252,15,7.875S14.498,9,13.875,9z
	 M16.125,12C15.502,12,15,11.498,15,10.875s0.502-1.125,1.125-1.125s1.125,0.502,1.125,1.125S16.748,12,16.125,12z"/>
<path fill="none" d="M0,0h24v24H0V0z"/>
</svg>
